<svg xmlns="http://www.w3.org/2000/svg" width="33.748" height="31.5" viewBox="0 0 33.748 31.5">
    <defs>
        <style>.a{fill:#a2bac4;}</style>
    </defs>
    <g transform="translate(-2.25 -2.25)">
        <path class="a" d="M25.875,29.25A2.25,2.25,0,1,1,23.625,27,2.25,2.25,0,0,1,25.875,29.25Z"/>
        <path class="a" d="M25.875,6.75a2.25,2.25,0,1,1-2.25-2.25A2.25,2.25,0,0,1,25.875,6.75Z"/>
        <path class="a" d="M6.75,18A2.25,2.25,0,1,1,4.5,15.75,2.25,2.25,0,0,1,6.75,18Z"/>
        <path class="a"
              d="M31.5,13.5a4.5,4.5,0,0,0-4.34,3.375H22.341A4.462,4.462,0,0,0,16.164,13.9L12.59,9.436a4.5,4.5,0,1,0-1.752,1.412l3.573,4.466a4.415,4.415,0,0,0,0,5.371l-3.573,4.466A4.455,4.455,0,0,0,9,24.75a4.545,4.545,0,1,0,3.589,1.815L16.162,22.1a4.462,4.462,0,0,0,6.178-2.974h4.819A4.492,4.492,0,1,0,31.5,13.5ZM6.75,6.75A2.25,2.25,0,1,1,9,9,2.25,2.25,0,0,1,6.75,6.75ZM9,31.5a2.25,2.25,0,1,1,2.25-2.25A2.25,2.25,0,0,1,9,31.5Zm9-11.25A2.25,2.25,0,1,1,20.25,18,2.25,2.25,0,0,1,18,20.25Zm13.5,0A2.25,2.25,0,1,1,33.75,18a2.25,2.25,0,0,1-2.25,2.25Z"/>
    </g>
</svg>